<?xml version="1.0" encoding="utf-8"?>
<!-- Generator: Adobe Illustrator 21.0.2, SVG Export Plug-In . SVG Version: 6.00 Build 0)  -->
<svg version="1.1" id="Layer_1" xmlns="http://www.w3.org/2000/svg" xmlns:xlink="http://www.w3.org/1999/xlink" x="0px" y="0px"
	 viewBox="0 0 54.9 35.2" style="enable-background:new 0 0 54.9 35.2;" xml:space="preserve">
<style type="text/css">
	.st0{fill:none;stroke:#C1C1C1;stroke-width:4;stroke-linecap:square;stroke-miterlimit:10;}
	.st1{fill:none;stroke:#C1C1C1;stroke-width:2;stroke-linecap:square;stroke-miterlimit:10;}
</style>
<g>
	<g>
		<path class="st0" d="M2.4,2.4v28.3c0,1.1,0.9,2,2,2h46.2c1.1,0,2-0.9,2-2V2.4"/>
	</g>
	<g>
		<path class="st1" d="M45.8,6L44,7.8c-0.8,0.8-2.1,0.8-2.8,0l-2.3-2.3c-0.8-0.8-2.1-0.8-2.8,0l-2.3,2.3c-0.8,0.8-2.1,0.8-2.8,0
			l-2.3-2.3c-0.8-0.8-2.1-0.8-2.8,0l-2.3,2.3c-0.8,0.8-2.1,0.8-2.8,0l-2.3-2.3c-0.8-0.8-2.1-0.8-2.8,0l-2.3,2.3
			c-0.8,0.8-2.1,0.8-2.8,0L8.2,5.6"/>
	</g>
	<g>
		<path class="st1" d="M24.8,22.2c2.7,0,5.2-1.2,6.9-3.1C30,17.2,27.6,16,24.8,16c-2.7,0-5.2,1.2-6.9,3.1
			C19.6,21,22.1,22.2,24.8,22.2z"/>
		<polygon class="st1" points="35.6,23.1 31.6,19.1 35.6,15.2 		"/>
	</g>
</g>
</svg>
