<?xml version="1.0" encoding="utf-8"?>
<!-- Generator: Adobe Illustrator 21.0.2, SVG Export Plug-In . SVG Version: 6.00 Build 0)  -->
<svg version="1.1" id="Layer_1" xmlns="http://www.w3.org/2000/svg" xmlns:xlink="http://www.w3.org/1999/xlink" x="0px" y="0px"
	 viewBox="0 0 62.9 50.3" style="enable-background:new 0 0 62.9 50.3;" xml:space="preserve">
<style type="text/css">
	.st0{fill:none;stroke:#C1C1C1;stroke-width:4;stroke-linecap:square;stroke-miterlimit:10;}
	.st1{fill:none;stroke:#C1C1C1;stroke-width:3;stroke-linecap:square;stroke-miterlimit:10;}
	.st2{fill:none;stroke:#C1C1C1;stroke-width:2;stroke-linecap:square;stroke-miterlimit:10;}
	.st3{fill:none;stroke:#C1C1C1;stroke-linecap:square;stroke-miterlimit:10;}
</style>
<g>
	<g>
		<path class="st0" d="M2.6,2.6v34.5c0,1.1,0.9,2,2,2h53.7c1.1,0,2-0.9,2-2V2.6"/>
	</g>
	<g>
		<path class="st1" d="M59.4,48.1v-2.5c0-1.1-0.9-2-2-2H4.6c-1.1,0-2,0.9-2,2v2.5"/>
	</g>
	<g>
		<line class="st2" x1="60.1" y1="7.1" x2="3.2" y2="7.1"/>
	</g>
	<g>
		<line class="st2" x1="60.1" y1="30.1" x2="3.2" y2="30.1"/>
	</g>
	<g>
		<line class="st3" x1="60.1" y1="33.1" x2="3.2" y2="33.1"/>
	</g>
	<g>
		<line class="st2" x1="11.2" y1="8.1" x2="11.2" y2="28.6"/>
	</g>
	<g>
		<line class="st2" x1="19.2" y1="8.1" x2="19.2" y2="28.6"/>
	</g>
	<g>
		<line class="st2" x1="27.2" y1="8.1" x2="27.2" y2="28.6"/>
	</g>
	<g>
		<line class="st2" x1="35.2" y1="8.1" x2="35.2" y2="28.6"/>
	</g>
	<g>
		<line class="st2" x1="43.2" y1="8.1" x2="43.2" y2="28.6"/>
	</g>
	<g>
		<line class="st2" x1="51.2" y1="8.1" x2="51.2" y2="28.6"/>
	</g>
</g>
</svg>
