<?xml version="1.0" encoding="utf-8"?>
<!-- Generator: Adobe Illustrator 21.0.2, SVG Export Plug-In . SVG Version: 6.00 Build 0)  -->
<svg version="1.1" id="Layer_1" xmlns="http://www.w3.org/2000/svg" xmlns:xlink="http://www.w3.org/1999/xlink" x="0px" y="0px"
	 viewBox="0 0 70.3 54.5" style="enable-background:new 0 0 70.3 54.5;" xml:space="preserve">
<style type="text/css">
	.st0{fill:none;stroke:#C1C1C1;stroke-width:2;stroke-linecap:square;stroke-miterlimit:10;}
	.st1{fill:none;stroke:#C1C1C1;stroke-width:3;stroke-linecap:square;stroke-miterlimit:10;}
	.st2{fill:none;stroke:#C1C1C1;stroke-width:4;stroke-linecap:square;stroke-miterlimit:10;}
	.st3{fill:#FFFFFF;stroke:#C1C1C1;stroke-miterlimit:10;}
</style>
<g>
	<g>
		<line class="st0" x1="41.6" y1="15" x2="41.6" y2="48.6"/>
	</g>
	<g>
		<line class="st0" x1="4.1" y1="14.8" x2="67.1" y2="14.8"/>
	</g>
	<g>
		<line class="st0" x1="20.6" y1="1.5" x2="7.7" y2="1.5"/>
	</g>
	<g>
		<line class="st0" x1="41.6" y1="1.5" x2="28.7" y2="1.5"/>
	</g>
	<g>
		<line class="st0" x1="62.6" y1="1.5" x2="49.7" y2="1.5"/>
	</g>
	<g>
		<line class="st1" x1="12" y1="52.5" x2="5.7" y2="52.5"/>
	</g>
	<g>
		<line class="st1" x1="65" y1="52.5" x2="58.7" y2="52.5"/>
	</g>
	<g>
		<path class="st2" d="M67.6,47.5c0,1.1-0.9,2-2,2h-61c-1.1,0-2-0.9-2-2v-41c0-1.1,0.9-2,2-2h61c1.1,0,2,0.9,2,2V47.5z"/>
	</g>
	<g>
		<path class="st0" d="M34.6,37c0,1.1-0.9,2-2,2h-19c-1.1,0-2-0.9-2-2V25c0-1.1,0.9-2,2-2h19c1.1,0,2,0.9,2,2V37z"/>
	</g>
	<line class="st0" x1="25.2" y1="27.7" x2="17.6" y2="35.3"/>
	<line class="st0" x1="30.6" y1="27.7" x2="23.1" y2="35.3"/>
	<circle class="st3" cx="15" cy="10.1" r="1.6"/>
	<circle class="st3" cx="25" cy="10.1" r="1.6"/>
	<circle class="st3" cx="35" cy="10.1" r="1.6"/>
	<circle class="st3" cx="45" cy="10.1" r="1.6"/>
	<circle class="st3" cx="55" cy="10.1" r="1.6"/>
</g>
</svg>
