<!DOCTYPE svg PUBLIC "-//W3C//DTD SVG 20010904//EN" "http://www.w3.org/TR/2001/REC-SVG-20010904/DTD/svg10.dtd">
<svg version="1.0" xmlns="http://www.w3.org/2000/svg" width="32px" height="30px" viewBox="0 0 320 300" preserveAspectRatio="xMidYMid meet">
<g id="layer1" fill="#ff547c" stroke="none">
 <path d="M97 265 c-64 -49 -97 -108 -97 -173 0 -43 4 -54 26 -71 30 -24 102 -29 122 -9 9 9 15 9 24 0 20 -20 92 -15 122 9 36 29 37 104 1 165 -28 47 -107 114 -135 114 -9 0 -38 -16 -63 -35z m105 -38 c68 -55 100 -141 66 -175 -17 -17 -63 -15 -78 3 -16 19 -44 19 -60 0 -7 -8 -24 -15 -39 -15 -81 0 -65 112 27 187 34 28 50 28 84 0z"/>
 </g>

</svg>