<?xml version="1.0" encoding="utf-8"?>
<!-- Generator: Adobe Illustrator 21.0.2, SVG Export Plug-In . SVG Version: 6.00 Build 0)  -->
<svg version="1.1" id="Слой_1" xmlns="http://www.w3.org/2000/svg" xmlns:xlink="http://www.w3.org/1999/xlink" x="0px" y="0px"
	 viewBox="0 0 52 47" style="enable-background:new 0 0 52 47;" xml:space="preserve">
<style type="text/css">
	.st0{fill:#0023FF;}
	.st1{fill:#FFFFFF;}
</style>
<g>
	<path class="st0" d="M47,23c0,2,0,4,0,6c-2.7,9.3-8.8,15.2-18,18c-2,0-4,0-6,0c-9.2-2.8-15.3-8.7-18-18c0-2,0-4,0-6
		c2.7-9.3,8.8-15.2,18-18c2,0,4,0,6,0C38.2,7.8,44.3,13.7,47,23z M25.6,36.2c5.8,0.2,10.6-4.3,10.6-10.1c0.1-5.6-4.3-10.2-9.9-10.4
		c-5.8-0.2-10.6,4.3-10.6,10.1C15.7,31.4,20.1,36.1,25.6,36.2z"/>
	<path class="st1" d="M23,5C13.8,7.8,7.7,13.7,5,23c0-6,0-12,0-18C11,5,17,5,23,5z"/>
	<path class="st1" d="M47,23c-2.7-9.3-8.8-15.2-18-18c6,0,12,0,18,0C47,11,47,17,47,23z"/>
	<path class="st1" d="M5,29c2.7,9.3,8.8,15.2,18,18c-6,0-12,0-18,0C5,41,5,35,5,29z"/>
	<path class="st1" d="M29,47c9.2-2.8,15.3-8.7,18-18c0,6,0,12,0,18C41,47,35,47,29,47z"/>
	<path class="st1" d="M25.6,36.2c-5.5-0.2-9.9-4.8-9.9-10.4c0.1-5.8,4.8-10.3,10.6-10.1c5.5,0.2,9.9,4.8,9.9,10.4
		C36.2,31.9,31.4,36.4,25.6,36.2z"/>
</g>
</svg>
